<?xml version="1.0" standalone="no"?>
<!DOCTYPE svg PUBLIC "-//W3C//DTD SVG 20010904//EN"
 "http://www.w3.org/TR/2001/REC-SVG-20010904/DTD/svg10.dtd">
<svg version="1.0" xmlns="http://www.w3.org/2000/svg"
 width="1008.000000pt" height="1008.000000pt" viewBox="0 0 1008.000000 1008.000000"
 preserveAspectRatio="xMidYMid meet">
<metadata>
Created by potrace 1.14, written by Peter Selinger 2001-2017
</metadata>
<g transform="translate(0.000000,1008.000000) scale(0.100000,-0.100000)"
fill="#000000" stroke="none">
<path d="M4840 9776 c-75 -21 -135 -52 -253 -129 -62 -40 -431 -282 -822 -537
-390 -256 -772 -505 -847 -555 -76 -49 -340 -223 -589 -385 -248 -162 -601
-393 -783 -512 -182 -119 -396 -258 -476 -310 -177 -114 -281 -212 -329 -309
-65 -133 -62 56 -58 -3089 2 -2570 4 -2860 18 -2905 68 -214 247 -374 454
-405 48 -7 776 -10 2275 -8 l2205 3 31 22 c84 60 82 185 -3 240 -26 17 -149
18 -2263 23 l-2235 5 -41 22 c-53 28 -99 74 -127 127 l-22 41 -3 2854 c-1
1848 1 2866 8 2890 21 80 64 128 182 205 62 40 199 129 303 197 254 167 939
615 1412 924 210 138 582 380 825 540 955 624 1154 753 1187 764 62 20 140 14
206 -18 33 -15 276 -150 540 -298 264 -149 647 -364 850 -478 204 -114 386
-216 405 -227 172 -99 791 -444 817 -455 45 -18 92 -9 137 28 49 41 64 96 41
155 -18 47 -40 66 -143 123 -114 64 -1553 872 -2072 1164 -436 246 -499 279
-570 295 -65 15 -201 14 -260 -2z"/>
<path d="M6416 8219 c-170 -40 -326 -197 -365 -369 -55 -239 82 -492 312 -571
l67 -24 0 -987 c0 -884 -2 -988 -16 -1002 -14 -14 -127 -16 -1095 -16 -755 0
-1086 -3 -1101 -11 -11 -6 -26 -26 -34 -45 -12 -29 -12 -39 0 -68 8 -19 24
-39 35 -45 14 -8 341 -10 1129 -9 l1109 3 48 30 c33 21 57 47 79 85 l31 55 5
1004 5 1003 62 19 c298 92 432 466 262 730 -64 100 -168 177 -288 213 -59 17
-181 20 -245 5z m236 -221 c54 -23 122 -91 146 -146 24 -56 22 -176 -4 -233
-48 -103 -143 -164 -259 -163 -166 0 -286 118 -287 280 -1 112 73 228 168 265
82 31 156 30 236 -3z"/>
<path d="M8655 6116 c-86 -21 -159 -61 -227 -124 -167 -157 -205 -390 -96
-594 56 -106 196 -214 311 -242 l27 -6 0 -391 c0 -250 -4 -397 -10 -410 -11
-19 -50 -19 -2566 -19 -2820 0 -2600 5 -2628 -61 -18 -42 -9 -74 26 -104 l30
-25 2569 0 c2285 0 2574 2 2606 15 61 26 104 65 129 119 l24 51 0 411 0 411
62 19 c360 109 462 577 182 833 -118 108 -289 154 -439 117z m211 -213 c70
-24 147 -103 168 -173 35 -116 12 -216 -67 -294 -147 -145 -382 -101 -468 87
-28 64 -26 169 6 233 67 135 217 196 361 147z"/>
<path d="M8854 3826 c-164 -52 -290 -181 -339 -349 l-16 -57 -2557 0 c-2226 0
-2560 -2 -2578 -15 -12 -8 -27 -28 -34 -45 -15 -36 0 -82 34 -105 18 -13 352
-15 2582 -15 l2561 0 21 -58 c101 -276 427 -404 687 -269 72 38 173 135 205
197 87 170 83 354 -11 501 -62 97 -174 183 -278 213 -66 19 -218 20 -277 2z
m226 -202 c81 -24 160 -107 184 -193 39 -140 -26 -282 -158 -342 -64 -29 -178
-26 -244 7 -205 102 -209 402 -7 506 80 42 139 48 225 22z"/>
<path d="M4086 2479 c-35 -41 -34 -83 3 -120 l29 -29 1291 0 c1159 0 1291 -2
1305 -16 14 -14 16 -72 16 -492 0 -532 -1 -520 71 -589 64 -61 78 -63 398 -63
l289 0 7 -32 c14 -66 76 -167 137 -223 99 -92 207 -135 338 -135 193 0 363
109 448 287 37 77 37 79 37 204 l0 126 -42 84 c-66 133 -179 230 -308 263 -76
20 -194 20 -270 1 -152 -40 -300 -187 -338 -335 l-14 -55 -269 -3 c-264 -2
-269 -2 -286 19 -17 20 -18 59 -18 498 l0 476 -30 52 c-22 39 -44 61 -83 83
l-52 30 -1317 0 -1316 0 -26 -31z m3997 -944 c54 -22 115 -81 145 -139 34 -67
37 -169 6 -237 -70 -152 -241 -217 -386 -146 -106 52 -162 144 -161 262 1 102
41 176 126 237 67 48 187 58 270 23z"/>
</g>
</svg>
