<svg width="48" height="48" viewBox="0 0 48 48" fill="none" xmlns="http://www.w3.org/2000/svg">
<g id="vuesax/outline/mobile">
<g id="mobile">
<path id="Vector" d="M45.5 18V30C45.5 38.82 42.82 41.5 34 41.5H14C5.18 41.5 2.5 38.82 2.5 30L2.5 18C2.5 9.18 5.18 6.5 14 6.5H34C42.82 6.5 45.5 9.18 45.5 18ZM5.5 30C5.5 37.16 6.86 38.5 14 38.5H34C41.14 38.5 42.5 37.16 42.5 30V18C42.5 10.84 41.14 9.5 34 9.5L14 9.5C6.86 9.5 5.5 10.84 5.5 18L5.5 30Z" fill="#444444"/>
<path id="Vector_2" d="M39.7195 24.0001C39.7195 26.5401 37.6595 28.6001 35.1195 28.6001C32.5795 28.6001 30.5195 26.5401 30.5195 24.0001C30.5195 21.4601 32.5795 19.4001 35.1195 19.4001C37.6595 19.4001 39.7195 21.4601 39.7195 24.0001ZM33.4995 24.0001C33.4995 24.8801 34.2195 25.6001 35.0995 25.6001C35.9795 25.6001 36.6995 24.8801 36.6995 24.0001C36.6995 23.1201 35.9795 22.4001 35.0995 22.4001C34.2195 22.4001 33.4995 23.1201 33.4995 24.0001Z" fill="#444444"/>
</g>
</g>
</svg>
