<svg width="48" height="48" viewBox="0 0 48 48" fill="none" xmlns="http://www.w3.org/2000/svg">
<g id="vuesax/outline/headphones">
<g id="headphones">
<path id="Vector" d="M17 25.5C16.18 25.5 15.5 24.82 15.5 24V14.4399C15.5 13.6199 16.18 12.9399 17 12.9399C17.82 12.9399 18.5 13.6199 18.5 14.4399V24C18.5 24.82 17.82 25.5 17 25.5Z" fill="#444444"/>
<path id="Vector_2" d="M17 45.5C16.18 45.5 15.5 44.82 15.5 44V38C15.5 37.18 16.18 36.5 17 36.5C17.82 36.5 18.5 37.18 18.5 38V44C18.5 44.82 17.82 45.5 17 45.5Z" fill="#444444"/>
<path id="Vector_3" d="M31 45.5C30.18 45.5 29.5 44.82 29.5 44V14.4399C29.5 13.6199 30.18 12.9399 31 12.9399C31.82 12.9399 32.5 13.6199 32.5 14.4399V44C32.5 44.82 31.82 45.5 31 45.5Z" fill="#444444"/>
<path id="Vector_4" d="M16.5998 15.7H12.0998C11.5198 15.7 11.0199 15.38 10.7599 14.86C10.4999 14.34 10.5599 13.74 10.8999 13.28C11.2799 12.78 11.4998 12.14 11.4998 11.48V9.68005C11.4998 9.04005 11.2799 8.4 10.8999 7.88C10.5599 7.42 10.4999 6.82005 10.7599 6.30005C11.0199 5.80005 11.5398 5.45996 12.0998 5.45996H16.5998C19.4198 5.45996 21.6999 7.74006 21.6999 10.5601C21.6999 11.9401 21.1598 13.2201 20.1798 14.1801C19.2598 15.1601 17.9798 15.7 16.5998 15.7ZM14.3798 12.7H16.5998C17.1598 12.7 17.6798 12.48 18.0598 12.1C18.4798 11.7 18.6999 11.18 18.6999 10.6C18.6999 9.43998 17.7598 8.5 16.5998 8.5H14.3798C14.4598 8.9 14.4998 9.29995 14.4998 9.69995V11.5C14.4998 11.9 14.4598 12.3 14.3798 12.7Z" fill="#444444"/>
<path id="Vector_5" d="M8.49951 17.5C7.17951 17.5 5.41953 17.0799 3.57953 15.4399C2.95953 14.8799 2.51953 13.88 2.51953 13V8.31995C2.51953 7.53995 2.87954 6.61996 3.39954 6.07996C5.25954 4.13996 7.17953 3.71995 8.45953 3.69995C8.47953 3.69995 8.49953 3.69995 8.51953 3.69995C10.0995 3.69995 11.6595 4.33996 12.7595 5.45996C12.9595 5.65996 13.1595 5.90001 13.3395 6.14001C14.0795 7.12001 14.4995 8.39995 14.4995 9.69995V11.5C14.4995 12.8 14.0795 14.08 13.2995 15.1C12.2995 16.44 10.7595 17.3 9.09949 17.46C8.91949 17.48 8.69951 17.5 8.49951 17.5ZM8.49951 6.69995C8.47951 6.69995 8.47953 6.69995 8.45953 6.69995C7.43953 6.71995 6.43949 7.22003 5.53949 8.16003C5.53949 8.16003 5.49951 8.29999 5.49951 8.35999V13.02C5.49951 13.06 5.55949 13.2 5.59949 13.26C6.61949 14.16 7.7395 14.62 8.7995 14.5C9.6395 14.42 10.3795 13.9999 10.8995 13.3199C11.2795 12.8199 11.4995 12.18 11.4995 11.52V9.71997C11.4995 9.07997 11.2795 8.44004 10.8995 7.92004C10.7995 7.76004 10.6995 7.67996 10.6195 7.57996C10.0595 7.01996 9.29951 6.69995 8.49951 6.69995Z" fill="#444444"/>
<path id="Vector_6" d="M35.8998 15.7H31.3998C30.0198 15.7 28.7398 15.1601 27.7798 14.1801C26.8398 13.2601 26.2998 11.98 26.2998 10.6C26.2998 7.77998 28.5798 5.5 31.3998 5.5H35.8998C36.4598 5.5 36.9798 5.81997 37.2398 6.33997C37.4998 6.83997 37.4398 7.46004 37.0998 7.92004C36.7198 8.42004 36.4998 9.05997 36.4998 9.71997V11.52C36.4998 12.18 36.7198 12.7999 37.0998 13.3199C37.4398 13.7799 37.4998 14.38 37.2398 14.9C36.9998 15.38 36.4798 15.7 35.8998 15.7ZM31.3998 8.5C30.2398 8.5 29.2998 9.43998 29.2998 10.6C29.2998 11.16 29.5198 11.6801 29.8998 12.0601C30.2998 12.4801 30.8198 12.7 31.3998 12.7H33.6198C33.5398 12.3 33.4998 11.9 33.4998 11.5V9.69995C33.4998 9.29995 33.5398 8.9 33.6198 8.5H31.3998Z" fill="#444444"/>
<path id="Vector_7" d="M39.5005 17.5C39.2805 17.5 39.0805 17.48 38.8805 17.48C37.2205 17.32 35.7005 16.46 34.6805 15.12C33.9005 14.1 33.4805 12.82 33.4805 11.52V9.71997C33.4805 8.41997 33.9005 7.14 34.6805 6.12C34.8205 5.92 35.0205 5.67998 35.2205 5.47998C36.3405 4.35998 37.8805 3.71997 39.4605 3.71997C39.4805 3.71997 39.5005 3.71997 39.5205 3.71997C40.8005 3.73997 42.7205 4.15998 44.5805 6.09998C45.1005 6.63998 45.4605 7.55997 45.4605 8.33997V13.02C45.4605 13.9 45.0205 14.8999 44.4005 15.4399C42.5805 17.0799 40.8205 17.5 39.5005 17.5ZM39.5005 6.69995C38.7005 6.69995 37.9205 7.01996 37.3805 7.57996C37.3005 7.65996 37.2205 7.75999 37.1405 7.85999C36.7205 8.41999 36.5005 9.05995 36.5005 9.69995V11.5C36.5005 12.16 36.7205 12.78 37.1005 13.3C37.6205 13.98 38.3605 14.4 39.2005 14.5C40.2605 14.62 41.3805 14.16 42.4605 13.22C42.4605 13.22 42.5005 13.08 42.5205 13.02V8.35999C42.5205 8.31999 42.4605 8.18001 42.4405 8.14001C41.5805 7.24001 40.5805 6.73999 39.5605 6.73999C39.5205 6.69999 39.5205 6.69995 39.5005 6.69995Z" fill="#444444"/>
<path id="Vector_8" d="M17 39.5C14.52 39.5 12.5 37.48 12.5 35V27C12.5 24.52 14.52 22.5 17 22.5C19.48 22.5 21.5 24.52 21.5 27V35C21.5 37.48 19.48 39.5 17 39.5ZM17 25.5C16.18 25.5 15.5 26.18 15.5 27V35C15.5 35.82 16.18 36.5 17 36.5C17.82 36.5 18.5 35.82 18.5 35V27C18.5 26.18 17.82 25.5 17 25.5Z" fill="#444444"/>
</g>
</g>
</svg>
