<svg width="24" height="24" viewBox="0 0 24 24" fill="none" xmlns="http://www.w3.org/2000/svg">
<g id="vuesax/outline/game">
<g id="game">
<path id="Vector" d="M6.52094 16.2599C6.33094 16.2599 6.14094 16.1899 5.99094 16.0399C5.70094 15.7499 5.70094 15.2699 5.99094 14.9799L9.04094 11.9299C9.33094 11.6399 9.81094 11.6399 10.1009 11.9299C10.3909 12.2199 10.3909 12.6999 10.1009 12.9899L7.05094 16.0399C6.90094 16.1799 6.71094 16.2599 6.52094 16.2599Z" fill="#0C0C0C"/>
<path id="Vector_2" d="M9.60023 16.2899C9.41023 16.2899 9.22023 16.2199 9.07023 16.0699L6.02023 13.0199C5.73023 12.7299 5.73023 12.2499 6.02023 11.9599C6.31023 11.6699 6.79023 11.6699 7.08023 11.9599L10.1302 15.0099C10.4202 15.2999 10.4202 15.7799 10.1302 16.0699C9.98023 16.2199 9.79023 16.2899 9.60023 16.2899Z" fill="#0C0C0C"/>
<path id="Vector_3" d="M13.5393 15C12.9893 15 12.5293 14.55 12.5293 14C12.5293 13.45 12.9693 13 13.5193 13H13.5393C14.0893 13 14.5393 13.45 14.5393 14C14.5393 14.55 14.0993 15 13.5393 15Z" fill="#0C0C0C"/>
<path id="Vector_4" d="M17.4807 15C16.9307 15 16.4707 14.55 16.4707 14C16.4707 13.45 16.9107 13 17.4607 13H17.4807C18.0307 13 18.4807 13.45 18.4807 14C18.4807 14.55 18.0307 15 17.4807 15Z" fill="#0C0C0C"/>
<path id="Vector_5" d="M15.5 16.97C14.95 16.97 14.5 16.53 14.5 15.98V15.96C14.5 15.41 14.95 14.96 15.5 14.96C16.05 14.96 16.5 15.41 16.5 15.96C16.5 16.51 16.06 16.97 15.5 16.97Z" fill="#0C0C0C"/>
<path id="Vector_6" d="M15.5 13.03C14.95 13.03 14.5 12.59 14.5 12.04V12.02C14.5 11.47 14.95 11.02 15.5 11.02C16.05 11.02 16.5 11.47 16.5 12.02C16.5 12.57 16.06 13.03 15.5 13.03Z" fill="#0C0C0C"/>
<path id="Vector_7" d="M15 22.75H9C3.57 22.75 1.25 20.43 1.25 15V13C1.25 7.57 3.57 5.25 9 5.25H15C20.43 5.25 22.75 7.57 22.75 13V15C22.75 20.43 20.43 22.75 15 22.75ZM9 6.75C4.39 6.75 2.75 8.39 2.75 13V15C2.75 19.61 4.39 21.25 9 21.25H15C19.61 21.25 21.25 19.61 21.25 15V13C21.25 8.39 19.61 6.75 15 6.75H9Z" fill="#0C0C0C"/>
<path id="Vector_8" d="M12.9902 6.75H11.9902C11.0302 6.75 10.2402 5.96 10.2402 5C10.2402 4.04 11.0202 3.25 11.9802 3.25C12.1402 3.25 12.2502 3.14 12.2602 3L12.2702 1.99C12.2802 1.58 12.6102 1.25 13.0202 1.25H13.0302C13.4402 1.26 13.7802 1.6 13.7702 2.01L13.7602 3.02C13.7502 3.97 12.9602 4.75 12.0102 4.75C11.8502 4.75 11.7502 4.86 11.7502 5C11.7502 5.14 11.8602 5.25 12.0002 5.25H13.0002C13.4102 5.25 13.7502 5.59 13.7502 6C13.7502 6.41 13.4002 6.75 12.9902 6.75Z" fill="#0C0C0C"/>
</g>
</g>
</svg>
