<svg width="32" height="32" viewBox="0 0 32 32" fill="none" xmlns="http://www.w3.org/2000/svg">
<g id="Facebook">
<path id="Vector" fill-rule="evenodd" clip-rule="evenodd" d="M23.9993 5.33332H7.99935C6.52659 5.33332 5.33268 6.52723 5.33268 7.99999V24C5.33268 25.4728 6.52659 26.6667 7.99935 26.6667H23.9993C25.4721 26.6667 26.666 25.4728 26.666 24V7.99999C26.666 6.52723 25.4721 5.33332 23.9993 5.33332ZM7.99935 2.66666C5.05383 2.66666 2.66602 5.05447 2.66602 7.99999V24C2.66602 26.9455 5.05383 29.3333 7.99935 29.3333H23.9993C26.9448 29.3333 29.3327 26.9455 29.3327 24V7.99999C29.3327 5.05447 26.9448 2.66666 23.9993 2.66666H7.99935Z" fill="white"/>
<path id="Vector_2" fill-rule="evenodd" clip-rule="evenodd" d="M15.8896 13.3333C15.8896 11.1242 17.6804 9.33334 19.8896 9.33334H22.6673V12H19.8896C19.1532 12 18.5563 12.597 18.5563 13.3333V16H22.6673V18.6667H18.5563V26.6667H15.8896V18.6667H13.334V16H15.8896V13.3333Z" fill="white"/>
</g>
</svg>
