<svg width="26" height="26" viewBox="0 0 26 26" fill="none" xmlns="http://www.w3.org/2000/svg">
<g id="Group">
<path id="Vector" d="M25.9272 7.63971C25.8648 6.2554 25.6411 5.30825 25.3239 4.48078C24.991 3.6273 24.5489 2.89872 23.826 2.18054C23.103 1.46237 22.3801 1.00961 21.5271 0.681745C20.7002 0.359087 19.7536 0.140512 18.3701 0.0780625C16.9814 0.0156125 16.5393 0 13.013 0C9.48152 0 9.03943 0.0156125 7.65595 0.0780625C6.27248 0.140512 5.32589 0.364291 4.49892 0.681745C3.64075 1.01481 2.9126 1.45717 2.19486 2.18054C1.47712 2.90392 1.02463 3.6273 0.696961 4.48078C0.379698 5.30825 0.156053 6.2554 0.0936406 7.63971C0.0312281 9.02922 0.015625 9.47158 0.015625 13C0.015625 16.5336 0.0312281 16.976 0.0936406 18.3603C0.156053 19.7446 0.379698 20.6918 0.696961 21.5192C1.02983 22.3727 1.47192 23.1013 2.19486 23.8195C2.9126 24.5428 3.64075 24.9904 4.49372 25.3183C5.32069 25.6409 6.26728 25.8595 7.65075 25.9219C9.03943 25.9844 9.48152 26 13.0078 26C16.5393 26 16.9814 25.9844 18.3649 25.9219C19.7484 25.8595 20.695 25.6357 21.5219 25.3183C22.3749 24.9852 23.103 24.5428 23.8208 23.8195C24.5385 23.0961 24.991 22.3727 25.3187 21.5192C25.6411 20.6918 25.8596 19.7446 25.922 18.3603C25.9844 16.9708 26 16.5284 26 13C26 9.47158 25.9896 9.02402 25.9272 7.63971ZM23.5919 18.2562C23.5347 19.526 23.3215 20.2182 23.1447 20.6709C22.9106 21.2746 22.6245 21.7118 22.1669 22.1697C21.7092 22.6277 21.2775 22.9035 20.669 23.1481C20.2113 23.3251 19.5195 23.5384 18.2557 23.5957C16.8878 23.6581 16.4769 23.6737 13.0026 23.6737C9.52833 23.6737 9.11744 23.6581 7.74957 23.5957C6.48052 23.5384 5.78878 23.3251 5.33629 23.1481C4.73297 22.9139 4.29608 22.6277 3.83839 22.1697C3.3807 21.7118 3.10504 21.2798 2.86059 20.6709C2.68376 20.213 2.47052 19.5208 2.4133 18.2562C2.35089 16.8875 2.33529 16.4764 2.33529 13C2.33529 9.52362 2.35089 9.11249 2.4133 7.7438C2.47052 6.47398 2.68376 5.78183 2.86059 5.32906C3.09464 4.72538 3.3807 4.28823 3.83839 3.83026C4.29608 3.3723 4.72777 3.09648 5.33629 2.85188C5.79398 2.67494 6.48572 2.46157 7.74957 2.40432C9.11744 2.34187 9.52833 2.32626 13.0026 2.32626C16.4769 2.32626 16.8878 2.34187 18.2557 2.40432C19.5247 2.46157 20.2165 2.67494 20.669 2.85188C21.2723 3.08607 21.7092 3.3723 22.1669 3.83026C22.6245 4.28823 22.9002 4.72018 23.1447 5.32906C23.3215 5.78703 23.5347 6.47918 23.5919 7.7438C23.6544 9.11249 23.67 9.52362 23.67 13C23.67 16.4764 23.6492 16.8875 23.5919 18.2562Z" fill="white"/>
<path id="Vector_2" d="M13.0024 6.31784C9.30962 6.31784 6.32422 9.31023 6.32422 13C6.32422 16.6949 9.31482 19.6821 13.0024 19.6821C16.6899 19.6821 19.6805 16.6845 19.6805 13C19.6805 9.30503 16.6951 6.31784 13.0024 6.31784ZM13.0024 17.3351C10.6099 17.3351 8.66989 15.3939 8.66989 13C8.66989 10.6061 10.6099 8.66492 13.0024 8.66492C15.3948 8.66492 17.3348 10.6061 17.3348 13C17.3348 15.3939 15.3948 17.3351 13.0024 17.3351Z" fill="white"/>
<path id="Vector_3" d="M19.9412 7.6189C20.8029 7.6189 21.5015 6.9199 21.5015 6.05765C21.5015 5.19539 20.8029 4.4964 19.9412 4.4964C19.0794 4.4964 18.3809 5.19539 18.3809 6.05765C18.3809 6.9199 19.0794 7.6189 19.9412 7.6189Z" fill="white"/>
</g>
</svg>
