<svg width="56" height="63" viewBox="0 0 56 63" fill="none" xmlns="http://www.w3.org/2000/svg">
<g id="logo">
<path id="Vector 177" d="M23.1641 30.2087C22.8664 30.2087 22.6251 30.45 22.6251 30.7477C22.6251 31.0454 22.8664 31.2866 23.1641 31.2866V30.2087ZM23.1641 31.2866H36.4028V30.2087H23.1641V31.2866ZM37.804 29.8854V17.3735H36.7261V29.8854H37.804ZM36.4028 31.2866C37.1767 31.2866 37.804 30.6593 37.804 29.8854H36.7261C36.7261 30.064 36.5814 30.2087 36.4028 30.2087V31.2866Z" fill="#0C68F4"/>
<path id="Vector 178" d="M18.6738 36.0049C18.3762 36.0049 18.1349 36.2462 18.1349 36.5439C18.1349 36.8415 18.3762 37.0828 18.6738 37.0828V36.0049ZM18.6738 37.0828H50.3747V36.0049H18.6738V37.0828ZM51.7759 35.6815V30.729H50.6981V35.6815H51.7759ZM50.3747 37.0828C51.1486 37.0828 51.7759 36.4554 51.7759 35.6815H50.6981C50.6981 35.8601 50.5533 36.0049 50.3747 36.0049V37.0828Z" fill="#0C68F4"/>
<path id="Vector 179" d="M17.8457 41.6542C17.548 41.6542 17.3068 41.8955 17.3068 42.1931C17.3068 42.4908 17.548 42.7321 17.8457 42.7321V41.6542ZM17.8457 42.7321H49.8274V41.6542H17.8457V42.7321Z" fill="#0C68F4"/>
<path id="Vector 180" d="M22.4551 47.3273C22.1574 47.3273 21.9161 47.5686 21.9161 47.8662C21.9161 48.1639 22.1574 48.4052 22.4551 48.4052V47.3273ZM22.4551 48.4052H38.2686V47.3273H22.4551V48.4052ZM38.5919 48.7285V54.2725H39.6698V48.7285H38.5919ZM39.9932 55.6737H43.3885V54.5958H39.9932V55.6737ZM38.5919 54.2725C38.5919 55.0464 39.2193 55.6737 39.9932 55.6737V54.5958C39.8146 54.5958 39.6698 54.451 39.6698 54.2725H38.5919ZM38.2686 48.4052C38.4472 48.4052 38.5919 48.5499 38.5919 48.7285H39.6698C39.6698 47.9546 39.0425 47.3273 38.2686 47.3273V48.4052Z" fill="#0C68F4"/>
<g id="Ellipse 384">
<mask id="path-5-inside-1_4206_3037" fill="white">
<path d="M40.381 14.6353C40.381 16.3213 39.0142 17.6881 37.3282 17.6881C35.6422 17.6881 34.2754 16.3213 34.2754 14.6353C34.2754 12.9493 35.6422 11.5825 37.3282 11.5825C39.0142 11.5825 40.381 12.9493 40.381 14.6353ZM35.4965 14.6353C35.4965 15.6469 36.3166 16.467 37.3282 16.467C38.3398 16.467 39.1599 15.6469 39.1599 14.6353C39.1599 13.6237 38.3398 12.8036 37.3282 12.8036C36.3166 12.8036 35.4965 13.6237 35.4965 14.6353Z"/>
</mask>
<path d="M40.381 14.6353C40.381 16.3213 39.0142 17.6881 37.3282 17.6881C35.6422 17.6881 34.2754 16.3213 34.2754 14.6353C34.2754 12.9493 35.6422 11.5825 37.3282 11.5825C39.0142 11.5825 40.381 12.9493 40.381 14.6353ZM35.4965 14.6353C35.4965 15.6469 36.3166 16.467 37.3282 16.467C38.3398 16.467 39.1599 15.6469 39.1599 14.6353C39.1599 13.6237 38.3398 12.8036 37.3282 12.8036C36.3166 12.8036 35.4965 13.6237 35.4965 14.6353Z" fill="#F45E0C" stroke="#F45E0C" stroke-width="0.472752" mask="url(#path-5-inside-1_4206_3037)"/>
</g>
<g id="Ellipse 385">
<mask id="path-6-inside-2_4206_3037" fill="white">
<path d="M54.3263 27.7813C54.3263 29.4673 52.9595 30.8341 51.2735 30.8341C49.5875 30.8341 48.2207 29.4673 48.2207 27.7813C48.2207 26.0953 49.5875 24.7285 51.2735 24.7285C52.9595 24.7285 54.3263 26.0953 54.3263 27.7813ZM49.4418 27.7813C49.4418 28.7929 50.2619 29.613 51.2735 29.613C52.2851 29.613 53.1052 28.7929 53.1052 27.7813C53.1052 26.7697 52.2851 25.9496 51.2735 25.9496C50.2619 25.9496 49.4418 26.7697 49.4418 27.7813Z"/>
</mask>
<path d="M54.3263 27.7813C54.3263 29.4673 52.9595 30.8341 51.2735 30.8341C49.5875 30.8341 48.2207 29.4673 48.2207 27.7813C48.2207 26.0953 49.5875 24.7285 51.2735 24.7285C52.9595 24.7285 54.3263 26.0953 54.3263 27.7813ZM49.4418 27.7813C49.4418 28.7929 50.2619 29.613 51.2735 29.613C52.2851 29.613 53.1052 28.7929 53.1052 27.7813C53.1052 26.7697 52.2851 25.9496 51.2735 25.9496C50.2619 25.9496 49.4418 26.7697 49.4418 27.7813Z" fill="#F45E0C" stroke="#F45E0C" stroke-width="0.472752" mask="url(#path-6-inside-2_4206_3037)"/>
</g>
<g id="Ellipse 386">
<mask id="path-7-inside-3_4206_3037" fill="white">
<path d="M55.7443 42.0548C55.7443 43.7408 54.3775 45.1075 52.6915 45.1075C51.0055 45.1075 49.6387 43.7408 49.6387 42.0548C49.6387 40.3687 51.0055 39.002 52.6915 39.002C54.3775 39.002 55.7443 40.3687 55.7443 42.0548ZM50.8598 42.0548C50.8598 43.0664 51.6799 43.8864 52.6915 43.8864C53.7031 43.8864 54.5231 43.0664 54.5231 42.0548C54.5231 41.0431 53.7031 40.2231 52.6915 40.2231C51.6799 40.2231 50.8598 41.0431 50.8598 42.0548Z"/>
</mask>
<path d="M55.7443 42.0548C55.7443 43.7408 54.3775 45.1075 52.6915 45.1075C51.0055 45.1075 49.6387 43.7408 49.6387 42.0548C49.6387 40.3687 51.0055 39.002 52.6915 39.002C54.3775 39.002 55.7443 40.3687 55.7443 42.0548ZM50.8598 42.0548C50.8598 43.0664 51.6799 43.8864 52.6915 43.8864C53.7031 43.8864 54.5231 43.0664 54.5231 42.0548C54.5231 41.0431 53.7031 40.2231 52.6915 40.2231C51.6799 40.2231 50.8598 41.0431 50.8598 42.0548Z" fill="#F45E0C" stroke="#F45E0C" stroke-width="0.472752" mask="url(#path-7-inside-3_4206_3037)"/>
</g>
<g id="Ellipse 387">
<mask id="path-8-inside-4_4206_3037" fill="white">
<path d="M49.3634 55.0555C49.3634 56.7415 47.9966 58.1083 46.3106 58.1083C44.6246 58.1083 43.2578 56.7415 43.2578 55.0555C43.2578 53.3695 44.6246 52.0027 46.3106 52.0027C47.9966 52.0027 49.3634 53.3695 49.3634 55.0555ZM44.4789 55.0555C44.4789 56.0671 45.299 56.8872 46.3106 56.8872C47.3222 56.8872 48.1423 56.0671 48.1423 55.0555C48.1423 54.0439 47.3222 53.2238 46.3106 53.2238C45.299 53.2238 44.4789 54.0439 44.4789 55.0555Z"/>
</mask>
<path d="M49.3634 55.0555C49.3634 56.7415 47.9966 58.1083 46.3106 58.1083C44.6246 58.1083 43.2578 56.7415 43.2578 55.0555C43.2578 53.3695 44.6246 52.0027 46.3106 52.0027C47.9966 52.0027 49.3634 53.3695 49.3634 55.0555ZM44.4789 55.0555C44.4789 56.0671 45.299 56.8872 46.3106 56.8872C47.3222 56.8872 48.1423 56.0671 48.1423 55.0555C48.1423 54.0439 47.3222 53.2238 46.3106 53.2238C45.299 53.2238 44.4789 54.0439 44.4789 55.0555Z" fill="#F45E0C" stroke="#F45E0C" stroke-width="0.472752" mask="url(#path-8-inside-4_4206_3037)"/>
</g>
<path id="Vector 181" d="M31.4095 58.1486H4.25688C2.82814 58.1486 1.66992 56.9904 1.66992 55.5616V20.5458C1.66992 19.6727 2.11029 18.8586 2.84097 18.3807L26.1716 3.123C26.9791 2.59494 28.0133 2.56009 28.8545 3.0326L44.9476 12.0726" stroke="#0C68F4" stroke-width="1.72464" stroke-linecap="round"/>
</g>
</svg>
