<svg width="32" height="32" viewBox="0 0 32 32" fill="none" xmlns="http://www.w3.org/2000/svg">
<g id="twitter">
<path id="Vector" fill-rule="evenodd" clip-rule="evenodd" d="M7.07276 5.16406L7.9372 6.77768C9.9804 10.5916 12.8974 11.7617 14.7143 11.9922V11.3094C14.7143 8.00885 17.3899 5.33322 20.6904 5.33322C23.991 5.33322 26.6667 8.00885 26.6667 11.3094V13.3332C26.6667 22.1716 20.4007 27.9999 13.1905 27.9999C10.0218 27.9999 7.78346 26.9661 6.3254 25.8861C5.60315 25.3511 5.08144 24.8119 4.73434 24.3965C4.56058 24.1887 4.4297 24.0108 4.3385 23.8783C4.29286 23.8121 4.25704 23.7571 4.23066 23.7152C4.21747 23.6943 4.20662 23.6765 4.19807 23.6624L4.18695 23.6437L4.18267 23.6365L4.18084 23.6333L4.18002 23.6319C4.18002 23.6319 4.17923 23.6305 5.33332 22.9628L4.17923 23.6305L3.02148 21.6295H5.33332C6.80528 21.6295 7.67179 21.6239 8.52351 21.4007C9.33562 21.1877 10.2225 20.7477 11.5711 19.6988L13.2083 21.8037C11.6998 22.9769 10.4871 23.6427 9.19954 23.9801C8.96384 24.0419 8.72867 24.0916 8.4929 24.1316C9.54591 24.7667 11.072 25.3332 13.1905 25.3332C18.8374 25.3332 24 20.7911 24 13.3332V11.3094C24 9.48161 22.5183 7.99989 20.6904 7.99989C18.8627 7.99989 17.381 9.48161 17.381 11.3094V14.5049L16.219 14.6555C14.0966 14.9307 9.90519 14.1324 6.79126 9.94349C6.67762 10.3694 6.64951 10.81 6.70836 11.2484C6.84667 12.2784 7.48878 13.4493 8.94871 14.4587L7.43223 16.6521C5.46359 15.2912 4.31998 13.4992 4.06542 11.6033C3.81124 9.71017 4.46712 7.86621 5.8021 6.48178L7.07276 5.16406Z" fill="white"/>
<path id="Vector_2" fill-rule="evenodd" clip-rule="evenodd" d="M7.28073 17.1733C8.05153 17.0627 8.74237 16.648 9.06611 16.4128L10.6335 18.5701C10.149 18.9221 9.0443 19.6141 7.65965 19.8129C6.18214 20.0251 4.45441 19.6559 3.00195 17.9747L5.01989 16.2313C5.81518 17.1519 6.60278 17.2707 7.28073 17.1733Z" fill="white"/>
<path id="Vector_3" fill-rule="evenodd" clip-rule="evenodd" d="M26.381 7.31089C26.5369 7.12165 26.6498 6.82651 26.648 6.32279L29.3146 6.31293C29.318 7.20825 29.1158 8.18482 28.4396 9.00603C27.7612 9.83002 26.7546 10.3165 25.5136 10.5295L25.0625 7.90127C25.8848 7.76014 26.2276 7.49738 26.381 7.31089Z" fill="white"/>
</g>
</svg>
