<svg width="32" height="32" viewBox="0 0 32 32" fill="none" xmlns="http://www.w3.org/2000/svg">
<g id="Youtube">
<path id="Vector" fill-rule="evenodd" clip-rule="evenodd" d="M13.3327 12.7098V19.2901L18.8163 16L13.3327 12.7098ZM10.666 21.6451C10.666 22.6815 11.7966 23.3216 12.6853 22.7884L22.0938 17.1433C22.957 16.6255 22.957 15.3745 22.0938 14.8567L12.6853 9.2116C11.7966 8.67838 10.666 9.31854 10.666 10.3549V21.6451Z" fill="white"/>
<path id="Vector_2" fill-rule="evenodd" clip-rule="evenodd" d="M26.666 23.3705V8.62951C26.666 7.57406 26.0963 6.91511 25.4709 6.72324C23.3228 6.06419 20.0291 5.33332 15.9993 5.33332C11.9696 5.33332 8.67591 6.06419 6.52775 6.72324C5.90238 6.91511 5.33268 7.57406 5.33268 8.62951V23.3705C5.33268 24.4259 5.90238 25.0849 6.52775 25.2768C8.67591 25.9357 11.9696 26.6667 15.9993 26.6667C20.0291 26.6667 23.3228 25.9357 25.4709 25.2768C26.0963 25.0849 26.666 24.4259 26.666 23.3705ZM5.74562 4.17386C3.81434 4.76636 2.66602 6.60939 2.66602 8.62951V23.3705C2.66602 25.3907 3.81434 27.2336 5.74562 27.8261C8.09006 28.5453 11.6507 29.3333 15.9993 29.3333C20.348 29.3333 23.9087 28.5453 26.2531 27.8261C28.1844 27.2336 29.3327 25.3907 29.3327 23.3705V8.62951C29.3327 6.60939 28.1844 4.76636 26.2531 4.17386C23.9087 3.45459 20.348 2.66666 15.9993 2.66666C11.6507 2.66666 8.09006 3.45459 5.74562 4.17386Z" fill="white"/>
</g>
</svg>
