<svg width="24" height="24" viewBox="0 0 24 24" fill="none" xmlns="http://www.w3.org/2000/svg">
<g id="vuesax/outline/bag">
<g id="bag">
<path id="Vector" d="M5.18988 6.37994C4.99988 6.37994 4.79988 6.29994 4.65988 6.15994C4.36988 5.86994 4.36988 5.38994 4.65988 5.09994L8.28988 1.46994C8.57988 1.17994 9.05988 1.17994 9.34988 1.46994C9.63988 1.75994 9.63988 2.23994 9.34988 2.52994L5.71988 6.15994C5.56988 6.29994 5.37988 6.37994 5.18988 6.37994Z" fill="#444444"/>
<path id="Vector_2" d="M18.8101 6.37994C18.6201 6.37994 18.4301 6.30994 18.2801 6.15994L14.6501 2.52994C14.3601 2.23994 14.3601 1.75994 14.6501 1.46994C14.9401 1.17994 15.4201 1.17994 15.7101 1.46994L19.3401 5.09994C19.6301 5.38994 19.6301 5.86994 19.3401 6.15994C19.2001 6.29994 19.0001 6.37994 18.8101 6.37994Z" fill="#444444"/>
<path id="Vector_3" d="M20.21 10.6001C20.14 10.6001 20.07 10.6001 20 10.6001H19.77H4C3.3 10.6101 2.5 10.6101 1.92 10.0301C1.46 9.5801 1.25 8.8801 1.25 7.8501C1.25 5.1001 3.26 5.1001 4.22 5.1001H19.78C20.74 5.1001 22.75 5.1001 22.75 7.8501C22.75 8.8901 22.54 9.5801 22.08 10.0301C21.56 10.5501 20.86 10.6001 20.21 10.6001ZM4.22 9.1001H20.01C20.46 9.1101 20.88 9.1101 21.02 8.9701C21.09 8.9001 21.24 8.6601 21.24 7.8501C21.24 6.7201 20.96 6.6001 19.77 6.6001H4.22C3.03 6.6001 2.75 6.7201 2.75 7.8501C2.75 8.6601 2.91 8.9001 2.97 8.9701C3.11 9.1001 3.54 9.1001 3.98 9.1001H4.22Z" fill="#444444"/>
<path id="Vector_4" d="M9.75977 18.3C9.34977 18.3 9.00977 17.96 9.00977 17.55V14C9.00977 13.59 9.34977 13.25 9.75977 13.25C10.1698 13.25 10.5098 13.59 10.5098 14V17.55C10.5098 17.97 10.1698 18.3 9.75977 18.3Z" fill="#444444"/>
<path id="Vector_5" d="M14.3599 18.3C13.9499 18.3 13.6099 17.96 13.6099 17.55V14C13.6099 13.59 13.9499 13.25 14.3599 13.25C14.7699 13.25 15.1099 13.59 15.1099 14V17.55C15.1099 17.97 14.7699 18.3 14.3599 18.3Z" fill="#0C0C0C"/>
<path id="Vector_6" d="M14.8902 22.75H8.86024C5.28024 22.75 4.48024 20.62 4.17024 18.77L2.76024 10.12C2.69024 9.71 2.97024 9.33 3.38024 9.26C3.79024 9.19 4.17024 9.47 4.24024 9.88L5.65024 18.52C5.94024 20.29 6.54024 21.25 8.86024 21.25H14.8902C17.4602 21.25 17.7502 20.35 18.0802 18.61L19.7602 9.86C19.8402 9.45 20.2302 9.18 20.6402 9.27C21.0502 9.35 21.3102 9.74 21.2302 10.15L19.5502 18.9C19.1602 20.93 18.5102 22.75 14.8902 22.75Z" fill="#0C0C0C"/>
</g>
</g>
</svg>
