<svg width="30" height="30" viewBox="0 0 30 30" fill="none" xmlns="http://www.w3.org/2000/svg">
<g id="vuesax/outline/close-circle">
<g id="close-circle">
<path id="Vector" d="M15 28.4375C7.5875 28.4375 1.5625 22.4125 1.5625 15C1.5625 7.5875 7.5875 1.5625 15 1.5625C22.4125 1.5625 28.4375 7.5875 28.4375 15C28.4375 22.4125 22.4125 28.4375 15 28.4375ZM15 3.4375C8.625 3.4375 3.4375 8.625 3.4375 15C3.4375 21.375 8.625 26.5625 15 26.5625C21.375 26.5625 26.5625 21.375 26.5625 15C26.5625 8.625 21.375 3.4375 15 3.4375Z" fill="#444444"/>
<path id="Vector_2" d="M11.4627 19.475C11.2252 19.475 10.9877 19.3875 10.8002 19.2C10.4377 18.8375 10.4377 18.2375 10.8002 17.875L17.8752 10.8C18.2377 10.4375 18.8377 10.4375 19.2002 10.8C19.5627 11.1625 19.5627 11.7625 19.2002 12.125L12.1252 19.2C11.9502 19.3875 11.7002 19.475 11.4627 19.475Z" fill="#444444"/>
<path id="Vector_3" d="M18.5377 19.475C18.3002 19.475 18.0627 19.3875 17.8752 19.2L10.8002 12.125C10.4377 11.7625 10.4377 11.1625 10.8002 10.8C11.1627 10.4375 11.7627 10.4375 12.1252 10.8L19.2002 17.875C19.5627 18.2375 19.5627 18.8375 19.2002 19.2C19.0127 19.3875 18.7752 19.475 18.5377 19.475Z" fill="#444444"/>
</g>
</g>
</svg>
