<svg width="24" height="24" viewBox="0 0 24 24" fill="none" xmlns="http://www.w3.org/2000/svg">
<g id="vuesax/outline/user-edit">
<g id="user-edit">
<path id="Vector" d="M12 12.75C8.83 12.75 6.25 10.17 6.25 7C6.25 3.83 8.83 1.25 12 1.25C15.17 1.25 17.75 3.83 17.75 7C17.75 10.17 15.17 12.75 12 12.75ZM12 2.75C9.66 2.75 7.75 4.66 7.75 7C7.75 9.34 9.66 11.25 12 11.25C14.34 11.25 16.25 9.34 16.25 7C16.25 4.66 14.34 2.75 12 2.75Z" fill="#444444"/>
<path id="Vector_2" d="M15.8201 22.7499C15.4401 22.7499 15.0801 22.6099 14.8201 22.3499C14.5101 22.0399 14.3701 21.5899 14.4401 21.1199L14.6301 19.7699C14.6801 19.4199 14.8901 19.0099 15.1401 18.7499L18.68 15.2099C20.1 13.7899 21.3501 14.5999 21.9601 15.2099C22.4801 15.7299 22.7501 16.2899 22.7501 16.8499C22.7501 17.4199 22.4901 17.9499 21.9601 18.4799L18.42 22.0199C18.17 22.2699 17.7501 22.4799 17.4001 22.5299L16.05 22.7198C15.97 22.7398 15.9001 22.7499 15.8201 22.7499ZM20.31 15.9199C20.13 15.9199 19.97 16.0399 19.74 16.2699L16.2001 19.8099C16.1701 19.8399 16.12 19.9399 16.12 19.9799L15.9401 21.2299L17.1901 21.0499C17.2301 21.0399 17.33 20.9899 17.36 20.9599L20.9001 17.4199C21.0601 17.2599 21.2501 17.0299 21.2501 16.8499C21.2501 16.6999 21.1301 16.4899 20.9001 16.2699C20.6601 16.0299 20.48 15.9199 20.31 15.9199Z" fill="#444444"/>
<path id="Vector_3" d="M20.9201 19.2198C20.8501 19.2198 20.7801 19.2099 20.7201 19.1899C19.4001 18.8199 18.3501 17.7699 17.9801 16.4499C17.8701 16.0499 18.1001 15.6399 18.5001 15.5299C18.9001 15.4199 19.3101 15.6499 19.4201 16.0499C19.6501 16.8699 20.3001 17.5199 21.1201 17.7499C21.5201 17.8599 21.7501 18.2799 21.6401 18.6699C21.5501 18.9999 21.2501 19.2198 20.9201 19.2198Z" fill="#444444"/>
<path id="Vector_4" d="M3.41016 22.75C3.00016 22.75 2.66016 22.41 2.66016 22C2.66016 17.73 6.85018 14.25 12.0002 14.25C13.0902 14.25 14.1702 14.41 15.1802 14.71C15.5802 14.83 15.8002 15.25 15.6802 15.64C15.5602 16.04 15.1402 16.26 14.7502 16.14C13.8702 15.88 12.9502 15.74 12.0002 15.74C7.68018 15.74 4.16016 18.54 4.16016 21.99C4.16016 22.41 3.82016 22.75 3.41016 22.75Z" fill="#444444"/>
</g>
</g>
</svg>
